<svg width="114" height="48" viewBox="0 0 114 48" fill="none" xmlns="http://www.w3.org/2000/svg">
<g clip-path="url(#clip0_1184_7452)">
<path d="M105.618 12.0807C103.396 11.9191 101.497 12.2626 98.3866 13.0908C92.0847 14.7878 72.9164 22.4646 70.0078 23.6363C69.1595 22.5656 67.9879 21.5151 66.3519 20.5858C59.4238 16.606 53.6673 15.0706 45.2243 15.5151C36.7814 15.9595 35.6503 19.9595 33.3678 20.808C31.0854 21.6565 28.5 20.4242 28.0556 20.1211C27.7325 19.8989 25.7934 17.0908 24.7633 15.5959C24.2987 14.909 23.7736 14.2828 23.208 13.6767C22.5819 13.0302 21.6931 12.1211 20.6226 11.1313C25.8338 9.39388 31.2268 7.6363 34.5393 6.58579C38.1549 5.45448 39.2052 4.90903 41.528 4.36357C46.4564 3.21206 44.2952 5.15145 46.6988 10.0201C47.7289 12.1009 49.1428 12.4242 49.8094 11.01C51.3242 7.85852 48.1329 1.77771 44.8607 0.808017C41.629 -0.16168 39.6091 -0.141478 35.4685 0.484785C31.1864 1.13125 20.9862 3.77771 13.7147 5.71711C12.0383 4.6464 10.3618 3.87872 8.82672 3.6161C2.46421 2.58579 0.787742 5.43428 0.100995 9.21206C-0.686744 13.5555 3.04997 26.6868 10.5436 33.2727C18.0372 39.8787 24.5007 34.5252 24.5007 34.5252C27.5507 32.404 27.3285 27.3333 27.3285 27.3333C29.0858 29.3535 33.085 28.3434 33.085 28.3434C35.9532 36.6868 39.2658 40.1211 43.871 44.0807C48.759 48.2828 58.3331 49.4747 64.9784 45.6969C71.1187 42.202 72.2498 35.6161 72.2902 32.3838C77.2388 29.9999 90.8728 23.3939 97.3969 19.9393C100.406 18.3434 103.598 17.2525 104.81 16.2828C108.769 13.1313 107.637 16.7676 110.586 21.3131C112.223 23.8383 114.162 23.3535 113.98 20.202C113.778 15.9393 109.88 12.404 105.618 12.0807ZM21.7537 33.0504C16.7647 35.6363 12.5836 31.7979 12.5836 31.7979C12.5836 31.7979 5.95854 26.808 4.96882 17.5757C4.03969 8.92923 9.27109 8.84842 9.27109 8.84842C9.27109 8.84842 13.3512 7.99994 17.9362 12.6262C20.8044 15.5353 22.0163 17.2929 22.9454 19.0504C24.1573 21.3333 24.9047 23.8383 24.9249 26.404C24.9451 28.909 24.3189 31.7373 21.7537 33.0504ZM60.9185 42.7676C53.1421 48.202 43.568 40.7272 43.568 40.7272C43.568 40.7272 38.6194 36.9494 36.0138 30.0403C33.4082 23.1312 39.3264 20.2424 39.3264 20.2424C47.0826 16.9494 54.8792 20.5252 58.7775 23.0706C60.5347 24.2222 62.3728 25.9191 63.2615 27.8181C65.0592 31.6565 66.8164 38.6666 60.9185 42.7676Z" fill="#30D5C7"/>
</g>
<defs>
<clipPath id="clip0_1184_7452">
<rect width="114" height="48" fill="white"/>
</clipPath>
</defs>
</svg>
