<svg width="50" height="50" viewBox="0 0 50 50" fill="none" xmlns="http://www.w3.org/2000/svg">
<circle cx="25" cy="25" r="25" fill="#30D5C7"/>
<path d="M21.625 17.5L21.3906 17.8047L20.5 19H15.25V32.5H34.75V19H29.5L28.6094 17.8047L28.375 17.5H21.625ZM22.375 19H27.625L28.5156 20.1953L28.75 20.5H33.25V31H16.75V20.5H21.25L21.4844 20.1953L22.375 19ZM19 21.25C18.5869 21.25 18.25 21.5869 18.25 22C18.25 22.4131 18.5869 22.75 19 22.75C19.4131 22.75 19.75 22.4131 19.75 22C19.75 21.5869 19.4131 21.25 19 21.25ZM25 21.25C22.5244 21.25 20.5 23.2744 20.5 25.75C20.5 28.2256 22.5244 30.25 25 30.25C27.4756 30.25 29.5 28.2256 29.5 25.75C29.5 23.2744 27.4756 21.25 25 21.25ZM25 22.75C26.667 22.75 28 24.083 28 25.75C28 27.417 26.667 28.75 25 28.75C23.333 28.75 22 27.417 22 25.75C22 24.083 23.333 22.75 25 22.75Z" fill="white"/>
</svg>
